<?xml version="1.0" encoding="UTF-8" standalone="no"?>
<svg
   xmlns:dc="http://purl.org/dc/elements/1.1/"
   xmlns:cc="http://creativecommons.org/ns#"
   xmlns:rdf="http://www.w3.org/1999/02/22-rdf-syntax-ns#"
   xmlns:svg="http://www.w3.org/2000/svg"
   xmlns="http://www.w3.org/2000/svg"
   viewBox="0 0 618.66669 154.66667"
   height="154.66667"
   width="618.66669"
   xml:space="preserve"
   id="svg2"
   version="1.1"><metadata
     id="metadata8"><rdf:RDF><cc:Work
         rdf:about=""><dc:format>image/svg+xml</dc:format><dc:type
           rdf:resource="http://purl.org/dc/dcmitype/StillImage" /></cc:Work></rdf:RDF></metadata><defs
     id="defs6" /><g
     transform="matrix(1.3333333,0,0,-1.3333333,0,154.66667)"
     id="g10"><g
       transform="scale(0.1)"
       id="g12"><path
         id="path14"
         style="fill:#00265e;fill-opacity:1;fill-rule:evenodd;stroke:none"
         d="m 4032.15,948.75 -15.55,89.14 -89.18,17.42 89.18,15.51 17.35,89.18 15.58,-89.65 89.18,-16.87 -89.18,-15.59 -17.38,-89.14" /><path
         id="path16"
         style="fill:#00265e;fill-opacity:1;fill-rule:evenodd;stroke:none"
         d="m 4125.9,880.16 -10.51,61.289 -60.86,11.871 61.33,10.508 11.41,60.822 10.97,-61.252 60.78,-11.449 -61.25,-10.969 -11.87,-60.82" /><path
         id="path18"
         style="fill:#00265e;fill-opacity:1;fill-rule:evenodd;stroke:none"
         d="m 3978.67,1010.04 c -4.57,0.9 -46.99,4.37 -127.15,10.51 -80.15,6.09 -171.32,9.14 -273.43,9.14 -102.43,-0.31 -188.99,-9.46 -259.73,-27.42 -2.42,1.21 -32.31,-11.141 -89.61,-37.071 -57.3,-25.629 -127.73,-71.609 -211.25,-138.051 -3.36,0.582 -35.04,0 -95.08,-1.878 -60.08,-1.481 -129.45,-7.61 -208.08,-18.282 -78.64,-10.66 -147.39,-29.136 -206.22,-55.308 -80.82,-42.379 -132.3,-84.77 -154.57,-127.149 -22.26,-42.34 -32.77,-72.07 -31.56,-89.14 -3.94,3.05 8.87,25 38.4,65.82 29.3,40.859 98.79,83.238 208.52,127.148 110.07,43.911 283.67,71.641 520.82,83.2 1.52,2.152 20.58,17.543 57.15,46.171 36.28,28.989 80.35,58.25 132.18,87.821 51.8,29.57 101.64,46.48 149.49,50.777 50.32,2.113 118.44,4.262 204.42,6.372 85.66,2.14 163.67,3.98 234.1,5.46 70.12,1.25 107.31,1.88 111.6,1.88" /><path
         id="path20"
         style="fill:#00265e;fill-opacity:1;fill-rule:evenodd;stroke:none"
         d="m 3096.17,838.98 c 2.42,0.629 37.31,1.25 104.69,1.879 67.66,0.59 153.94,-1.558 258.83,-6.449 104.84,-4.57 214.45,-14.762 328.75,-30.621 -2.42,0 -35.51,0.781 -99.22,2.301 -63.44,1.211 -142.5,2.269 -237.34,3.172 -94.46,0.937 -189.42,0.777 -284.85,-0.434 -95.43,-0.898 -176.37,-3.668 -242.81,-8.238 l 171.95,38.39" /><path
         id="path22"
         style="fill:#00265e;fill-opacity:1;fill-rule:evenodd;stroke:none"
         d="m 2323.83,526.25 c 3.08,-2.77 18.75,-16.02 47.11,-39.77 28.04,-23.468 50.78,-40.269 68.12,-50.308 13.71,-10.66 21.8,-30.973 24.22,-60.82 2.15,-29.883 0.31,-47.422 -5.47,-52.582 -7.61,-1.25 -25.15,3.359 -52.58,13.71 -27.42,10.36 -52.42,23.641 -74.96,39.809 3.95,-0.937 20.39,-4.301 49.34,-10.078 28.67,-5.82 45.43,-7.5 50.31,-5.039 3.05,10.976 5.31,21.637 6.88,31.988 1.21,10.711 -7.19,23.789 -25.16,39.34 -14.34,10.98 -30.66,24.41 -48.94,40.27 -18.29,16.14 -31.22,33.949 -38.87,53.48" /><path
         id="path24"
         style="fill:#00265e;fill-opacity:1;fill-rule:evenodd;stroke:none"
         d="m 3471.09,477.34 c -4.25,0 -34.88,-3.078 -91.91,-9.141 -56.99,-5.859 -115.7,-15 -176.02,-27.461 -60.07,-12.808 -96.95,-28.937 -110.66,-48.468 -16.17,-30.2 -27.73,-55.469 -34.77,-75.899 -7.3,-20.121 0.79,-31.101 24.26,-32.93 20.12,-0.632 56.06,0.309 107.89,2.731 52.15,2.148 101.37,4.566 147.7,7.348 46.33,2.421 71.01,3.781 74.1,4.101 -3.36,-0.32 -27.77,-1.101 -73.16,-2.312 -45.47,-0.899 -91.33,0.16 -137.66,3.242 -46.06,3.008 -71.8,10.629 -77.27,22.859 -2.14,19.488 1.96,36.871 12.35,52.11 10.66,15.539 22.69,25.46 36.09,29.718 15.27,4.262 46.52,12.192 93.75,23.793 47.27,11.879 92.5,23.008 135.82,33.36 43.28,10.699 66.45,16.328 69.49,16.949" /><path
         id="path26"
         style="fill:#00265e;fill-opacity:1;fill-rule:evenodd;stroke:none"
         d="m 2451.45,562.34 204.8,-61.25 c 3.36,0 31.29,1.531 83.67,4.57 52.15,2.738 109.34,6.25 171.49,10.551 62.18,4.219 109.61,8.668 142.22,13.238 -3.98,0 -33.71,0.16 -89.18,0.473 -55.78,0 -113.98,0.117 -174.65,0.43 -60.39,0.308 -99.57,0.468 -117.53,0.468 -16.14,0.309 -41.61,3.051 -76.37,8.239 -34.45,5.203 -66.72,10.203 -96.92,15.082 -29.88,5.16 -45.74,7.929 -47.53,8.199" /><path
         id="path28"
         style="fill:#00265e;fill-opacity:1;fill-rule:evenodd;stroke:none"
         d="m 3307.85,826.211 c -1.83,1.801 -34.41,-3.832 -97.85,-16.949 -63.4,-12.782 -147.11,-44.653 -251.02,-95.551 4.85,3.359 53.95,19.379 147.23,48.008 92.97,28.359 200.7,48.633 323.28,60.859 l -121.64,3.633" /><path
         id="path30"
         style="fill:#00265e;fill-opacity:1;fill-rule:evenodd;stroke:none"
         d="m 2664.96,758.98 c -5.47,0.899 -32.77,-8.55 -81.87,-28.359 -48.75,-19.801 -86.53,-54.57 -113.36,-104.25 0.27,1.52 5.78,13.277 16.4,35.231 10.43,21.636 24.57,43.91 42.58,66.757 l 136.25,30.621" /><path
         id="path32"
         style="fill:#00265e;fill-opacity:1;fill-rule:evenodd;stroke:none"
         d="m 3581.29,201.602 c 0,1.796 3.2,20.898 9.61,57.148 6.09,36.289 15.55,79.262 28.36,128.949 12.5,49.68 28.16,95.422 47.07,137.18 13.71,29.262 32.5,56.211 56.29,80.902 24.06,24.418 49.33,36.449 75.86,36.168 26.56,0 50.15,-22.89 70.86,-68.59 28.39,-76.519 36.44,-150.16 24.25,-220.898 -11.87,-70.699 -26.21,-120.082 -42.97,-148.121 1.53,1.211 21.96,8.39 61.29,21.48 38.99,13.399 87.93,25.942 146.76,37.5 62.78,11.559 128.05,23.321 195.71,35.231 67.38,11.879 103.82,18.289 109.29,19.179 1.8,2.11 11.13,21.801 27.89,58.989 16.45,37.191 29.73,79.84 39.81,128.051 8.79,46.949 20.7,86.558 35.62,118.902 14.65,32.578 27.89,52.848 39.81,60.777 12.77,7.621 25.43,1.68 37.93,-17.808 12.81,-19.84 17.54,-56.871 14.18,-111.129 3.04,4.258 5.19,26.047 6.4,65.386 1.21,39.332 -16.33,69.961 -52.58,91.911 -25.62,9.769 -46.95,-0.778 -64.02,-31.559 -16.76,-30.781 -31.09,-68.871 -42.97,-114.34 -11.91,-45.39 -23.01,-85.461 -33.4,-120.23 -20.11,-54.258 -31.83,-83.239 -35.19,-86.879 -3.99,-0.621 -35.51,-6.09 -94.65,-16.481 -59.14,-10.351 -121.8,-22.07 -187.97,-35.16 -65.82,-13.121 -110.78,-23.82 -134.88,-32.031 2.46,2.422 7.46,30 15.12,82.742 7.61,52.77 3.78,114.328 -11.45,184.758 -20.12,69.492 -50,112.781 -89.61,129.851 -39.96,17.379 -79.41,11.129 -118.44,-18.75 -49.68,-42.07 -85.66,-99.378 -107.93,-171.921 -22.22,-72.579 -38.24,-148.75 -48,-228.629 l 21.95,-52.578" /><path
         id="path34"
         style="fill:#00265e;fill-opacity:1;fill-rule:evenodd;stroke:none"
         d="m 4191.29,921.762 c 2.11,-1.492 16.13,-10.512 42.03,-26.961 25.94,-16.75 50.16,-31.871 72.7,-45.27 23.2,-11.293 54.45,-20.902 93.75,-28.832 39.33,-7.609 67.96,-16.437 85.97,-26.519 -2.73,0.621 -24.26,4.449 -64.45,11.441 -40.55,7.348 -83.67,13.719 -129.41,19.219 -13.44,5.199 -32.93,21.609 -58.56,49.379 -25.27,27.73 -39.3,43.59 -42.03,47.543" /><path
         id="path36"
         style="fill:#00265e;fill-opacity:1;fill-rule:evenodd;stroke:none"
         d="m 3946.21,806.988 c 2.74,0.313 23.91,1.992 63.52,5.043 39.65,3.047 81.87,6.25 126.68,9.61 45.11,3.629 76.83,6.089 95.11,7.308 -2.14,2.77 -30.47,6.09 -85.07,10.031 -54.54,4.301 -121.29,-6.402 -200.24,-31.992" /><path
         id="path38"
         style="fill:#00265e;fill-opacity:1;fill-rule:evenodd;stroke:none"
         d="m 2519.1,361.641 139.45,-37.969 203.48,14.18 -205.78,-28.364 -137.15,52.153" /><path
         id="path40"
         style="fill:#00265e;fill-opacity:1;fill-rule:evenodd;stroke:none"
         d="m 3550.66,143.52 c -3.67,0 -39.92,0.152 -108.82,0.429 -68.6,0 -147.54,0.352 -236.88,0.93 -89.3,0.941 -166.56,2.152 -231.84,3.641 l -37.46,32.96 -435.31,28.36 454.49,11.84 35.67,-36.559 560.15,-41.601" /><path
         id="path42"
         style="fill:#00265e;fill-opacity:1;fill-rule:evenodd;stroke:none"
         d="m 4092.03,654.73 238.71,73.629 c 2.42,1.481 16.45,9.61 42.07,24.219 25.59,14.652 47.85,26.211 66.76,34.762 -2.15,0.941 -17.38,-0.738 -45.74,-5.039 -28.36,-4.25 -57.31,-16.012 -86.88,-35.192 L 4092.03,654.73" /><path
         id="path44"
         style="fill:#00265e;fill-opacity:1;fill-rule:evenodd;stroke:none"
         d="m 3896.8,822.578 77.73,116.992 -127.58,-120.699 49.85,3.707" /><path
         id="path46"
         style="fill:#00265e;fill-opacity:1;fill-rule:evenodd;stroke:none"
         d="m 4590.94,424.73 c 4.22,-0.32 14.61,-10.98 31.05,-32 16.49,-20.742 14.06,-49.878 -7.3,-87.339 -21.02,-37.5 -85.98,-81.09 -194.77,-130.782 C 4311.05,124.648 4133.36,70.5117 3886.76,12.3008 h -509.38 c 3.95,0.3203 50.9,9.1484 140.82,26.4883 90.24,17.3828 199.96,40.5507 329.22,69.5309 129.26,28.95 254.69,61.41 376.29,97.379 121.99,35.981 216.6,72.852 283.99,110.672 67.07,37.5 83.71,73.629 49.84,108.359 h 33.4" /><path
         id="path48"
         style="fill:#00265e;fill-opacity:1;fill-rule:evenodd;stroke:none"
         d="m 2645.31,183.281 c -0.93,-4.84 -49.41,-29.261 -145.43,-73.16 C 2404.18,66.2109 2266.52,31.332 2086.99,5.42969 h -442.61 c 2.42,0 32.3,4.10156 89.57,12.33981 57.34,8.25 126.56,20.4297 207.65,36.6094 81.06,15.8203 158.79,35.3125 233.2,58.5121 74.38,23.48 129.97,50.269 166.88,80.468 l 303.63,-10.078" /><path
         id="path50"
         style="fill:#00265e;fill-opacity:1;fill-rule:evenodd;stroke:none"
         d="m 3588.59,539.961 c 0.32,2.738 10.24,19.488 29.73,50.269 19.22,31.141 45.59,60.391 79.14,87.821 33.52,27.73 71.76,37.808 114.73,30.187 -0.9,2.422 -12.93,5.782 -36.1,10.043 -23.16,4.297 -51.79,-4.84 -85.97,-27.422 -34.14,-22.539 -67.97,-72.847 -101.53,-150.898" /><path
         id="path52"
         style="fill:#00265e;fill-opacity:1;fill-rule:evenodd;stroke:none"
         d="m 4375.55,547.27 c -0.32,2.14 2.89,17.851 9.61,47.109 6.4,29.293 18.28,58.672 35.66,88.242 17.07,29.879 41.29,46.789 72.7,50.777 -1.22,2.114 -10.51,4.262 -27.9,6.403 -17.38,2.109 -35.5,-9.492 -54.41,-34.762 -18.59,-25.309 -30.47,-77.891 -35.66,-157.769" /><path
         id="path54"
         style="fill:#00265e;fill-opacity:1;fill-rule:evenodd;stroke:none"
         d="m 3717.11,778.672 c -1.84,0 -17.38,-5.512 -46.68,-16.481 -29.26,-10.671 -61.72,-26.531 -97.38,-47.543 -35.63,-21.058 -63.99,-46.679 -85.04,-76.839 -3.36,0.312 -7.74,6.101 -13.24,17.39 -5.79,11.563 6.71,27.891 37.5,48.903 30.74,21.058 99.06,45.898 204.84,74.57" /><path
         id="path56"
         style="fill:#002860;fill-opacity:1;fill-rule:nonzero;stroke:none"
         d="m 49.7695,719.531 c 8.5118,-0.941 16.3203,-1.64 23.4297,-2.031 7.1914,-0.43 13.7891,-0.621 19.8516,-0.621 19.0582,0 38.2772,1.562 57.6482,4.68 19.461,3.211 38.211,7.89 56.25,14.062 13.442,4.578 22.821,8.758 28.129,12.5 5.313,3.828 7.973,8.008 7.973,12.5 0,6.57 -6.25,12.66 -18.75,18.289 -12.5,5.621 -37.352,12.891 -74.531,21.871 -33.989,8.008 -56.3716,15.547 -67.1919,22.66 -10.8593,7.18 -16.25,16.758 -16.25,28.75 0,16.129 2.2227,30.86 6.7227,44.219 4.4492,13.32 10.6992,23.82 18.75,31.559 14.2502,13.441 37.9692,25.23 71.0902,35.472 33.199,10.188 66.328,15.309 99.379,15.309 21.32,0 38.628,-2.109 51.871,-6.25 13.32,-4.059 20,-9.18 20,-15.309 0,-10.941 -2.032,-20.632 -6.09,-29.07 -4.071,-8.43 -9.852,-14.762 -17.352,-18.902 -2.109,-1.168 -8.429,-4.059 -19.058,-8.75 -10.621,-4.688 -19.922,-9.219 -27.813,-13.59 -3.238,-1.801 -6.949,-4.07 -11.098,-6.879 -4.179,-2.809 -7.109,-4.219 -8.75,-4.219 -1.789,0 -3.199,0.469 -4.21,1.41 -1.059,1.008 -1.571,2.418 -1.571,4.219 0,4.449 9.531,13.512 28.602,27.18 l 5.148,3.75 c -1.359,0 -3.898,0.039 -7.648,0.16 -3.75,0.199 -6.879,0.309 -9.379,0.309 -36.801,0 -70.082,-5.93 -99.844,-17.809 -29.687,-11.801 -44.527,-23.199 -44.527,-34.219 0,-7.301 14.609,-15 43.898,-23.121 16.641,-4.691 30.352,-8.711 41.102,-12.039 27.808,-8.98 49.84,-20 66.09,-33.121 16.328,-13.121 24.531,-26.172 24.531,-39.059 0,-10.32 -4.371,-22.89 -13.121,-37.66 -8.75,-14.801 -18.871,-25.621 -30.321,-32.5 -17.5,-10.23 -40.781,-18.511 -69.839,-24.84 -29.063,-6.453 -59.18,-9.691 -90.3129,-9.691 -23.9883,0 -43.707,3.09 -59.2187,9.219 -15.50784,6.011 -23.281275,13.32 -23.281275,21.871 0,2.582 2.421875,8.75 7.191405,18.441 4.80077,9.77 9.53127,17.188 14.21097,22.188 3.1289,3.32 8.6797,6.25 16.7187,8.75 8.1289,2.5 17.6992,4.101 28.75,4.84 -1.8711,-3.118 -4.289,-5.899 -7.1797,-8.278 -2.8203,-2.422 -6.1797,-4.492 -10,-6.25 z m 353.9415,4.379 c -16.371,-20.941 -30.082,-36.531 -41.09,-46.719 -11.062,-10.242 -19.769,-15.312 -26.101,-15.312 -8.551,0 -16.481,5.351 -23.75,16.09 -7.258,10.703 -10.93,23.672 -10.93,38.91 0,13.633 3.121,26.793 9.371,39.531 6.129,12.692 16.559,27.18 31.25,43.43 8.949,9.89 15.937,16.25 20.937,19.07 5,2.891 10.512,4.371 16.563,4.371 6.949,0 12.891,-1.011 17.809,-2.972 5,-1.868 7.5,-4.059 7.5,-6.559 0,-4.488 -3.668,-11.051 -10.93,-19.691 -7.192,-8.668 -23.871,-25.469 -50,-50.469 -3.051,-6.559 -5.281,-12.031 -6.719,-16.399 -1.371,-4.382 -2.031,-8.132 -2.031,-11.25 0,-2.113 0.148,-3.562 0.461,-4.382 0.398,-0.86 1.097,-1.25 2.039,-1.25 5,0 15.461,6.492 31.398,19.531 15.942,13.012 33.75,29.93 53.442,50.781 l 0.308,0.32 c 35.203,37.579 56.293,56.399 63.282,56.399 2.82,0 4.929,-1.68 6.41,-5 1.558,-3.238 2.34,-7.961 2.34,-14.219 0,-8.742 -3.04,-16.672 -9.059,-23.742 l -0.621,-0.789 c -14.61,-16.481 -26.328,-32.418 -35.16,-47.809 -8.871,-15.429 -13.282,-26.953 -13.282,-34.531 0,-3.051 1.09,-5.551 3.282,-7.5 2.191,-1.988 4.73,-2.969 7.66,-2.969 4.371,0 10.781,3.008 19.211,9.059 8.437,6.14 25.16,20.32 50.16,42.5 V 731.719 C 489.34,700.039 468.32,678.629 454.488,667.5 440.738,656.48 429.02,650.941 419.34,650.941 c -8.25,0 -14.93,2.61 -20,7.809 -5,5.199 -7.5,12.23 -7.5,21.09 0,5.39 1.012,11.961 3.121,19.691 2.07,7.699 5,15.821 8.75,24.379 z" /><path
         id="path58"
         style="fill:#002860;fill-opacity:1;fill-rule:nonzero;stroke:none"
         d="m 537.031,660.16 c -16.992,-41.64 -29.761,-70.359 -38.441,-86.101 -8.75,-15.821 -15.86,-23.75 -21.399,-23.75 -3.32,0 -5.98,1.679 -7.972,5 -1.949,3.242 -2.969,7.66 -2.969,13.281 0,17.109 2.969,33.711 8.91,49.851 5.86,16.047 15.07,32.579 27.649,49.528 0.121,0.082 0.312,0.39 0.632,0.941 7.809,9.141 16.758,23.59 26.868,43.281 l 35,68.899 c -6.36,-7.418 -13.668,-15.391 -21.868,-23.899 -8.242,-8.441 -19.031,-19.031 -32.351,-31.722 v 21.562 c 20.82,19.258 45,48.047 72.5,86.41 6.879,9.45 11.922,16.438 15.16,20.938 7.809,10.191 15.16,17.57 22.031,22.18 6.949,4.691 14.098,7.031 21.41,7.031 4.258,0 7.731,-0.891 10.469,-2.649 2.809,-1.679 4.219,-3.871 4.219,-6.562 0,-4.688 -6.02,-14.539 -17.969,-29.539 -12,-14.918 -21.879,-28.899 -29.691,-42.031 L 585,761.09 c 17.379,16.961 34.691,30.859 51.879,41.719 17.18,10.82 29.601,16.25 37.34,16.25 5.703,0 9.883,-1.481 12.5,-4.368 2.691,-2.929 4.062,-7.582 4.062,-13.91 0,-14.609 -5.781,-31.211 -17.34,-49.84 -11.492,-18.562 -27.929,-37.582 -49.382,-57.031 0.511,-0.238 1.25,-0.39 2.191,-0.469 4.449,-1.25 7.379,-1.882 8.75,-1.882 10.391,0 22.031,4.222 34.84,12.66 12.82,8.441 31.449,24.84 55.941,49.222 L 726.25,731.41 C 701.129,704.73 678.281,684.262 657.66,670 637.031,655.859 620,648.75 606.559,648.75 c -7.297,0 -14.219,0.941 -20.778,2.809 -6.48,1.882 -12.109,4.531 -16.871,7.972 -2.738,-0.621 -5.469,-1.133 -8.289,-1.562 -2.812,-0.508 -5.621,-0.778 -8.43,-0.778 -2.312,0 -4.691,0.27 -7.191,0.778 -2.5,0.551 -5.16,1.25 -7.969,2.191 z m 25.309,41.09 c 1.961,0.309 5.199,0.699 9.691,1.25 4.449,0.621 7.739,0.941 9.848,0.941 2.07,0 4.211,-0.242 6.402,-0.632 2.27,-0.309 4.84,-0.86 7.66,-1.559 16.008,17.809 27.5,31.801 34.368,42.031 6.961,10.199 10.472,17.809 10.472,22.809 0,2.39 -0.269,4.109 -0.781,5.16 -0.43,1.02 -1.211,1.641 -2.34,1.871 -7.621,0 -18.711,-6.672 -33.281,-20 C 589.77,739.77 575.781,722.5 562.34,701.25 Z" /><path
         id="path60"
         style="fill:#002860;fill-opacity:1;fill-rule:nonzero;stroke:none"
         d="m 748.48,730.469 v -2.188 c 0,-10.312 2.649,-18.511 7.969,-24.531 5.313,-6.051 12.531,-9.059 21.711,-9.059 11.641,0 25.86,5 42.66,15 16.879,10 34.61,24.059 53.282,42.188 v -20.16 c -23.981,-26.559 -45.313,-45.938 -64.063,-58.129 -18.75,-12.07 -36.641,-18.121 -53.59,-18.121 -16.679,0 -29.461,5.269 -38.289,15.781 -8.82,10.629 -13.281,25.82 -13.281,45.629 0,14.57 3.441,28.781 10.32,42.652 6.789,13.828 16.871,27.11 30.313,39.848 13.508,12.812 27.5,22.5 41.867,29.062 14.383,6.559 28.75,9.84 43.133,9.84 11.008,0 19.218,-1.679 24.527,-5 5.391,-3.242 8.121,-8.281 8.121,-15.16 0,-15.422 -11.09,-31.992 -33.281,-49.68 -22.18,-17.621 -49.328,-30.281 -81.399,-37.972 z m 1.719,19.691 c 24.25,10.93 43.281,21.559 57.031,31.871 13.75,10.391 20.622,19.098 20.622,26.09 0,1.758 -0.274,3.051 -0.782,3.91 -0.55,0.821 -1.332,1.25 -2.34,1.25 -9.5,0 -21.96,-6.051 -37.351,-18.121 -15.309,-12 -27.731,-27 -37.18,-45 z" /><path
         id="path62"
         style="fill:#002860;fill-opacity:1;fill-rule:nonzero;stroke:none"
         d="m 853.629,711.719 -6.25,15.621 30.941,30.16 c -3.75,2.191 -6.519,4.609 -8.281,7.34 -1.758,2.699 -2.66,5.629 -2.66,8.75 0,11.961 7.191,25.672 21.57,41.101 14.449,15.387 26.481,23.118 36.09,23.118 1.441,0 2.731,-0.579 3.91,-1.719 1.25,-1.051 1.871,-2.418 1.871,-4.059 0,-1.051 -0.468,-2.73 -1.41,-5 -0.859,-2.191 -2.14,-5 -3.898,-8.441 l 37.808,2.5 c 0.942,0 2.11,0.039 3.59,0.16 5.82,0.512 9.93,0.781 12.352,0.781 8.008,0 13.898,-2.5 17.648,-7.5 3.83,-5 5.79,-12.582 5.79,-22.652 0,-3.758 -3.872,-9.219 -11.571,-16.41 -4.801,-4.18 -8.43,-7.578 -10.93,-10.16 -8.679,-9.289 -15.789,-18.899 -21.41,-28.899 -5.551,-9.93 -8.277,-17.82 -8.277,-23.75 0,-4.5 0.968,-7.93 2.968,-10.32 1.95,-2.301 5,-3.43 9.059,-3.43 4.449,0 11.762,3.75 21.871,11.25 10.078,7.57 26.41,21.641 48.91,42.18 v -20.149 c -25,-27.421 -45.308,-47.351 -60.941,-59.851 -15.539,-12.5 -27.809,-18.75 -36.867,-18.75 -8.051,0 -14.922,3.441 -20.633,10.32 -5.738,6.871 -8.59,15.352 -8.59,25.469 0,12.812 3.481,25.621 10.473,38.43 7.066,12.89 19.097,28.171 36.09,45.781 -10.743,-2.61 -19.614,-4.531 -26.563,-5.781 -6.988,-1.25 -13.59,-2.34 -19.84,-3.278 l -5.937,-6.41 C 876.949,733.199 861.371,717.73 853.629,711.719 Z" /><path
         id="path64"
         style="fill:#002860;fill-opacity:1;fill-rule:nonzero;stroke:none"
         d="m 1180.43,751.879 0.47,-20.16 c -23.36,-26.489 -44.38,-46.489 -63.13,-60 -18.67,-13.52 -34.53,-20.309 -47.65,-20.309 -12.82,0 -24.38,7.301 -34.69,21.871 -10.31,14.571 -15.47,31.328 -15.47,50.309 0,14.262 3.71,28.172 11.09,41.719 7.5,13.64 18.44,26.453 32.82,38.441 12.81,10.82 26.29,19.609 40.47,26.41 14.25,6.75 25.86,10.149 34.84,10.149 7.38,0 12.73,-1.52 16.09,-4.528 3.32,-2.929 5,-7.66 5,-14.222 0,-11.868 -5.74,-25.11 -17.18,-39.68 -11.49,-14.5 -20.86,-21.719 -28.13,-21.719 -3.12,0 -5.43,1.168 -6.87,3.59 -1.49,2.379 -2.35,6.289 -2.66,11.719 -12.42,-7.418 -22.97,-14.918 -31.72,-22.5 -8.67,-7.617 -15.62,-15.27 -20.94,-22.969 v -4.531 c 0,-9.809 2.43,-17.457 7.35,-22.969 5,-5.551 11.79,-8.281 20.47,-8.281 13.12,0 27.81,4.73 44.06,14.222 16.33,9.45 34.92,23.938 55.78,43.438 z" /><path
         id="path66"
         style="fill:#002860;fill-opacity:1;fill-rule:nonzero;stroke:none"
         d="m 1277.73,725.309 c -20.11,-21.168 -36.68,-36.95 -49.68,-47.34 -13.05,-10.43 -22.82,-15.629 -29.38,-15.629 -5.94,0 -13.51,7.582 -22.65,22.82 -9.26,15.309 -13.91,29.531 -13.91,42.649 0,9.461 3.98,20.203 11.87,32.191 7.9,11.949 18.91,23.789 32.97,35.469 10.63,8.75 21.92,16.48 33.91,23.281 12.07,6.762 25.35,12.809 39.84,18.129 10.08,3.941 19.73,7.07 28.91,9.371 9.14,2.379 15.51,3.59 19.06,3.59 4.88,0 9.73,-2.731 14.53,-8.121 4.89,-5.43 7.35,-10.547 7.35,-15.309 0,-1.488 -0.59,-2.781 -1.72,-3.91 -1.06,-1.051 -3.24,-2.5 -6.56,-4.379 l -8.29,-4.84 7.82,-16.09 c 1.01,-1.882 1.72,-3.519 2.03,-4.851 0.39,-1.36 0.62,-2.649 0.62,-3.899 0,-3.363 -5.86,-13.519 -17.5,-30.472 -11.68,-16.879 -17.5,-30 -17.5,-39.379 0,-3.551 1.14,-6.25 3.44,-8.121 2.27,-1.879 5.51,-2.809 9.69,-2.809 6.44,0 14.53,3.199 24.22,9.68 9.68,6.449 23.43,18.129 41.25,35 l 0.47,-19.68 c -31.49,-34.07 -53.36,-55.898 -65.63,-65.469 -12.19,-9.57 -22.62,-14.382 -31.25,-14.382 -6.99,0 -12.89,2.621 -17.66,7.812 -4.8,5.199 -7.18,11.719 -7.18,19.539 0,7.18 3.59,21.91 10.78,44.219 z m 36.72,79.222 c -48.86,-20.941 -80.54,-37.34 -95,-49.222 -14.37,-11.789 -21.56,-24.918 -21.56,-39.368 0,-3.562 0.7,-6.531 2.19,-8.91 1.44,-2.422 3.32,-3.59 5.62,-3.59 7.39,0 21.76,9.61 43.13,28.899 21.33,19.262 43.2,43.32 65.62,72.191 z" /><path
         id="path68"
         style="fill:#002860;fill-opacity:1;fill-rule:nonzero;stroke:none"
         d="m 1368.05,711.719 -6.25,15.621 30.93,30.16 c -3.75,2.191 -6.52,4.609 -8.28,7.34 -1.75,2.699 -2.65,5.629 -2.65,8.75 0,11.961 7.18,25.672 21.56,41.101 14.45,15.387 26.48,23.118 36.09,23.118 1.45,0 2.74,-0.579 3.91,-1.719 1.25,-1.051 1.87,-2.418 1.87,-4.059 0,-1.051 -0.46,-2.73 -1.4,-5 -0.86,-2.191 -2.15,-5 -3.91,-8.441 l 37.81,2.5 c 0.94,0 2.11,0.039 3.6,0.16 5.82,0.512 9.92,0.781 12.34,0.781 8.01,0 13.91,-2.5 17.66,-7.5 3.83,-5 5.78,-12.582 5.78,-22.652 0,-3.758 -3.87,-9.219 -11.56,-16.41 -4.81,-4.18 -8.44,-7.578 -10.94,-10.16 -8.67,-9.289 -15.78,-18.899 -21.41,-28.899 -5.54,-9.93 -8.28,-17.82 -8.28,-23.75 0,-4.5 0.98,-7.93 2.97,-10.32 1.95,-2.301 5,-3.43 9.06,-3.43 4.46,0 11.76,3.75 21.88,11.25 10.08,7.57 26.4,21.641 48.9,42.18 v -20.149 c -25,-27.421 -45.31,-47.351 -60.93,-59.851 -15.55,-12.5 -27.82,-18.75 -36.88,-18.75 -8.04,0 -14.92,3.441 -20.62,10.32 -5.75,6.871 -8.6,15.352 -8.6,25.469 0,12.812 3.48,25.621 10.47,38.43 7.07,12.89 19.1,28.171 36.1,45.781 -10.75,-2.61 -19.61,-4.531 -26.57,-5.781 -6.99,-1.25 -13.59,-2.34 -19.84,-3.278 l -5.94,-6.41 c -23.55,-24.922 -39.14,-40.391 -46.87,-46.402 z" /><path
         id="path70"
         style="fill:#000000;fill-opacity:1;fill-rule:nonzero;stroke:none"
         d="m 348.828,446.719 c -11.988,-1.68 -24.848,-4.649 -38.598,-8.91 -13.75,-4.289 -22.031,-6.399 -24.839,-6.399 -2.5,0 -4.493,0.621 -5.942,1.871 -1.359,1.328 -2.027,3.168 -2.027,5.469 0,7.891 1.637,16.289 5,25.16 3.437,8.942 7.738,15.352 12.969,19.211 12.269,9.149 28.32,16.449 48.129,21.879 19.761,5.391 40.66,8.121 62.652,8.121 32.887,0 57.848,-7.031 74.848,-21.09 16.949,-14.062 25.46,-34.801 25.46,-62.191 0,-18.238 -5,-35.738 -15,-52.5 -10,-16.789 -24.64,-32.262 -43.902,-46.399 -18.988,-13.75 -39.457,-24.531 -61.406,-32.351 -21.992,-7.692 -42.891,-11.559 -62.652,-11.559 -12.622,0 -21.571,1.84 -26.879,5.469 -5.313,3.52 -7.969,9.531 -7.969,17.969 0,13.75 7.578,32.89 22.808,57.5 15.321,24.691 39.891,57.383 73.75,98.121 -9.8,-0.621 -20.429,-2.418 -31.871,-5.309 -11.48,-2.812 -23.519,-6.722 -36.089,-11.722 2.691,0.203 4.921,0.32 6.71,0.32 1.758,0.07 3.641,0.191 5.629,0.312 4.879,0 8.832,-0.281 11.871,-0.781 3.008,-0.43 5.469,-1.18 7.348,-2.191 z m 50.473,20 v -2.188 c 0,-6.562 -5.942,-17.5 -17.821,-32.812 -1.558,-1.989 -2.769,-3.52 -3.589,-4.528 -16.25,-21.492 -30.161,-41.722 -41.719,-60.781 -11.481,-19.07 -17.192,-30.281 -17.192,-33.601 0,-2.731 1.801,-4.758 5.469,-6.09 3.641,-1.25 9.301,-1.879 17.031,-1.879 13.75,0 28.52,2.191 44.379,6.57 15.942,4.449 30.621,10.469 44.063,17.969 16.328,9.25 29.566,20.851 39.687,34.84 10.192,14.062 15.313,27.543 15.313,40.472 0,12.688 -7.192,22.579 -21.563,29.688 -14.379,7.07 -35.738,11.172 -64.058,12.34 z M 573.09,336.559 C 559.02,321.762 547.379,310.699 538.238,303.441 529.18,296.129 522.34,292.5 517.77,292.5 c -4.18,0 -9.489,5.309 -15.93,15.941 -6.449,10.7 -9.692,20.661 -9.692,29.84 0,6.641 2.774,14.141 8.282,22.5 5.511,8.438 13.199,16.719 23.121,24.84 7.39,6.141 15.32,11.57 23.75,16.258 8.437,4.762 17.699,9.062 27.82,12.812 7.07,2.688 13.789,4.879 20.149,6.559 6.449,1.641 10.941,2.5 13.441,2.5 3.437,0 6.801,-1.949 10.16,-5.781 3.43,-3.75 5.149,-7.309 5.149,-10.629 0,-1.051 -0.43,-1.988 -1.25,-2.809 -0.739,-0.742 -2.258,-1.722 -4.532,-2.972 l -5.777,-3.438 5.469,-11.242 c 0.699,-1.367 1.172,-2.5 1.41,-3.438 0.308,-0.941 0.461,-1.839 0.461,-2.66 0,-2.422 -4.141,-9.531 -12.34,-21.402 -8.121,-11.801 -12.191,-20.938 -12.191,-27.5 0,-2.5 0.781,-4.457 2.351,-5.789 1.641,-1.25 3.938,-1.871 6.867,-1.871 4.461,0 10.082,2.23 16.883,6.722 6.75,4.571 16.399,12.731 28.899,24.528 l 0.32,-13.75 c -22,-23.867 -37.309,-39.18 -45.942,-45.938 -8.558,-6.64 -15.859,-10 -21.878,-10 -4.918,0 -9.02,1.84 -12.34,5.469 -3.36,3.629 -5,8.199 -5,13.75 0,5 2.5,15.309 7.5,30.941 z m 25.621,55.472 c -34.18,-14.691 -56.332,-26.211 -66.41,-34.531 -10.11,-8.238 -15.153,-17.422 -15.153,-27.5 0,-2.5 0.512,-4.609 1.563,-6.25 1.019,-1.68 2.34,-2.5 3.91,-2.5 5.188,0 15.231,6.719 30.149,20.16 15,13.512 30.32,30.391 45.941,50.621 z" /><path
         id="path72"
         style="fill:#000000;fill-opacity:1;fill-rule:nonzero;stroke:none"
         d="m 654.059,342.66 c -1.168,-0.859 -2.418,-1.801 -3.75,-2.82 -1.36,-0.93 -3.36,-2.34 -6.09,-4.219 l -0.309,13.438 c 8.121,8.519 15.231,16.332 21.399,23.441 6.14,7.191 11.722,14.102 16.722,20.781 -3.359,0.508 -6.41,0.86 -9.222,1.098 -2.731,0.312 -5.149,0.461 -7.34,0.461 h -6.41 c -1.168,0 -1.989,0.16 -2.5,0.469 -0.539,0.312 -0.778,0.82 -0.778,1.57 0,2.18 2.27,6.711 6.879,13.59 4.68,6.871 8.899,11.601 12.649,14.222 2.582,1.868 6.41,3.2 11.41,4.059 5,0.941 12.07,1.48 21.25,1.719 1.011,1.332 2.422,3.203 4.222,5.621 11.129,15.32 22.731,22.969 34.84,22.969 1.758,0 3.321,-0.539 4.688,-1.559 1.332,-0.941 2.031,-2.031 2.031,-3.281 0,-1.489 -0.309,-2.891 -0.941,-4.219 -0.618,-1.371 -1.637,-2.77 -2.969,-4.219 L 736.559,429.84 c 5.203,-0.309 9.261,-1.012 12.191,-2.031 2.891,-1.047 4.371,-2.297 4.371,-3.75 0,-1.481 -2.031,-5.079 -6.09,-10.778 -3.98,-5.621 -8.551,-10.902 -13.75,-15.781 -3.242,-2.93 -6.172,-4.922 -8.75,-5.941 -2.621,-0.938 -6.011,-1.399 -10.152,-1.399 -3.129,0 -5.32,0 -6.57,0 -1.25,0.07 -2.297,0.149 -3.118,0.149 -8.992,-11.168 -16.062,-22.809 -21.25,-35 -5.242,-12.11 -7.82,-22.579 -7.82,-31.399 0,-3.129 0.707,-5.551 2.188,-7.191 1.57,-1.68 3.671,-2.5 6.41,-2.5 4.371,0 11.172,3.203 20.472,9.691 9.258,6.559 21.758,16.871 37.5,30.93 l 0.309,-13.75 c -17.109,-18.238 -32.578,-32.262 -46.41,-42.031 -13.75,-9.68 -25.07,-14.528 -33.899,-14.528 -6.25,0 -11.062,1.797 -14.382,5.309 -3.43,3.441 -5.149,8.359 -5.149,14.851 0,5.309 1.012,11.168 2.961,17.649 2,6.57 4.77,13.32 8.438,20.32 z" /><path
         id="path74"
         style="fill:#000000;fill-opacity:1;fill-rule:nonzero;stroke:none"
         d="m 810.039,336.559 c -14.059,-14.797 -25.699,-25.86 -34.84,-33.118 -9.07,-7.312 -15.898,-10.941 -20.469,-10.941 -4.179,0 -9.5,5.309 -15.941,15.941 -6.449,10.7 -9.687,20.661 -9.687,29.84 0,6.641 2.777,14.141 8.277,22.5 5.512,8.438 13.211,16.719 23.133,24.84 7.379,6.141 15.308,11.57 23.75,16.258 8.437,4.762 17.687,9.062 27.808,12.812 7.071,2.688 13.789,4.879 20.16,6.559 6.442,1.641 10.93,2.5 13.43,2.5 3.442,0 6.801,-1.949 10.16,-5.781 3.442,-3.75 5.16,-7.309 5.16,-10.629 0,-1.051 -0.429,-1.988 -1.25,-2.809 -0.75,-0.742 -2.269,-1.722 -4.531,-2.972 l -5.789,-3.438 5.469,-11.242 c 0.711,-1.367 1.172,-2.5 1.41,-3.438 0.313,-0.941 0.473,-1.839 0.473,-2.66 0,-2.422 -4.141,-9.531 -12.352,-21.402 -8.121,-11.801 -12.18,-20.938 -12.18,-27.5 0,-2.5 0.782,-4.457 2.34,-5.789 1.641,-1.25 3.95,-1.871 6.879,-1.871 4.449,0 10.071,2.23 16.871,6.722 6.758,4.571 16.41,12.731 28.91,24.528 l 0.309,-13.75 c -21.988,-23.867 -37.309,-39.18 -45.937,-45.938 -8.551,-6.64 -15.864,-10 -21.872,-10 -4.929,0 -9.031,1.84 -12.351,5.469 -3.359,3.629 -5,8.199 -5,13.75 0,5 2.5,15.309 7.5,30.941 z m 25.621,55.472 C 801.48,377.34 779.34,365.82 769.262,357.5 c -10.121,-8.238 -15.16,-17.422 -15.16,-27.5 0,-2.5 0.507,-4.609 1.558,-6.25 1.02,-1.68 2.352,-2.5 3.91,-2.5 5.2,0 15.231,6.719 30.16,20.16 15,13.512 30.309,30.391 45.93,50.621 z" /><path
         id="path76"
         style="fill:#000000;fill-opacity:1;fill-rule:nonzero;stroke:none"
         d="m 1074.3,395.781 c 29.14,-2.5 52.26,-7.73 69.37,-15.621 17.19,-7.93 25.78,-17.191 25.78,-27.82 0,-6.559 -2.57,-13.199 -7.65,-19.84 -5.12,-6.68 -13.05,-13.711 -23.75,-21.09 -13.25,-9.18 -26.72,-16.18 -40.47,-20.941 -13.67,-4.77 -26.88,-7.188 -39.69,-7.188 -17.3,0 -31.52,3.52 -42.66,10.469 -11.05,7.07 -16.558,16.02 -16.558,26.871 0,6.141 1.168,12.348 3.598,18.598 2.5,6.332 6.44,13.359 11.87,21.09 l 17.5,25.632 c -7.62,0.7 -13.52,2.219 -17.66,4.528 -4.18,2.383 -6.25,5.351 -6.25,8.91 0,3.512 3.32,6.48 10,8.902 6.76,2.5 20.36,5.391 40.79,8.75 15.07,16.641 27.57,28.52 37.5,35.629 10,7.07 19.06,10.621 27.18,10.621 0.94,0 1.64,-0.312 2.19,-0.941 0.51,-0.539 0.78,-1.211 0.78,-2.031 0,-0.86 -0.39,-1.868 -1.09,-3.118 -0.63,-1.25 -1.56,-2.66 -2.81,-4.222 l -26.25,-31.559 c 25.39,4.25 46.13,10.231 62.18,17.969 16.02,7.812 24.07,15.5 24.07,23.121 0,4.691 -2.82,8.48 -8.44,11.41 -5.63,2.891 -13.09,4.371 -22.35,4.371 -13.43,0 -28.51,-1.801 -45.15,-5.312 -16.68,-3.559 -34.65,-8.828 -53.91,-15.778 l 12.5,-3.281 -47.34,-15.469 -2.35,-0.781 c -9.37,-2.93 -15.539,-4.379 -18.429,-4.379 -2.11,0 -3.832,0.508 -5.16,1.559 -1.25,1.14 -1.871,2.539 -1.871,4.219 0,4.691 3.511,12.703 10.62,24.062 7.19,11.328 14.41,19.379 21.72,24.07 4.37,2.887 10.47,5.821 18.28,8.75 7.89,3.008 18.32,6.289 31.25,9.84 15.7,4.141 29.38,7.188 40.94,9.059 11.56,1.879 22.5,2.82 32.81,2.82 19.14,0 34.69,-3.871 46.56,-11.57 11.88,-7.61 17.82,-17.5 17.82,-29.68 0,-18.558 -11.25,-34.219 -33.75,-47.031 -22.43,-12.738 -54.18,-21.41 -95.32,-26.098 z m -11.88,-14.062 -14.06,-16.559 c -3.75,-4.5 -6.72,-8.91 -8.91,-13.281 -2.18,-4.379 -3.28,-7.969 -3.28,-10.789 0,-4.61 3.13,-8.711 9.38,-12.34 6.33,-3.672 13.98,-5.469 22.97,-5.469 15.31,0 30.23,4.059 44.84,12.188 14.69,8.121 22.03,15.551 22.03,22.34 0,5 -6.37,9.57 -19.06,13.75 -12.74,4.14 -30.71,7.543 -53.91,10.16 z" /><path
         id="path78"
         style="fill:#000000;fill-opacity:1;fill-rule:nonzero;stroke:none"
         d="m 1256.41,336.559 c -14.07,-14.797 -25.71,-25.86 -34.85,-33.118 -9.06,-7.312 -15.9,-10.941 -20.47,-10.941 -4.18,0 -9.49,5.309 -15.93,15.941 -6.45,10.7 -9.69,20.661 -9.69,29.84 0,6.641 2.77,14.141 8.28,22.5 5.51,8.438 13.2,16.719 23.13,24.84 7.38,6.141 15.31,11.57 23.74,16.258 8.44,4.762 17.7,9.062 27.82,12.812 7.07,2.688 13.79,4.879 20.15,6.559 6.45,1.641 10.94,2.5 13.44,2.5 3.44,0 6.8,-1.949 10.16,-5.781 3.43,-3.75 5.15,-7.309 5.15,-10.629 0,-1.051 -0.43,-1.988 -1.25,-2.809 -0.74,-0.742 -2.26,-1.722 -4.53,-2.972 l -5.78,-3.438 5.47,-11.242 c 0.7,-1.367 1.17,-2.5 1.41,-3.438 0.31,-0.941 0.46,-1.839 0.46,-2.66 0,-2.422 -4.14,-9.531 -12.34,-21.402 -8.12,-11.801 -12.19,-20.938 -12.19,-27.5 0,-2.5 0.79,-4.457 2.35,-5.789 1.64,-1.25 3.94,-1.871 6.87,-1.871 4.46,0 10.08,2.23 16.88,6.722 6.76,4.571 16.4,12.731 28.9,24.528 l 0.32,-13.75 c -22,-23.867 -37.31,-39.18 -45.94,-45.938 -8.56,-6.64 -15.86,-10 -21.88,-10 -4.92,0 -9.02,1.84 -12.34,5.469 -3.36,3.629 -5,8.199 -5,13.75 0,5 2.5,15.309 7.5,30.941 z m 25.62,55.472 c -34.18,-14.691 -56.33,-26.211 -66.41,-34.531 -10.11,-8.238 -15.15,-17.422 -15.15,-27.5 0,-2.5 0.51,-4.609 1.56,-6.25 1.02,-1.68 2.35,-2.5 3.91,-2.5 5.19,0 15.23,6.719 30.15,20.16 15,13.512 30.32,30.391 45.94,50.621 z" /><path
         id="path80"
         style="fill:#000000;fill-opacity:1;fill-rule:nonzero;stroke:none"
         d="m 1444.1,354.84 0.31,-13.75 c -17.42,-18.36 -32.96,-32.11 -46.71,-41.25 -13.75,-9.141 -25.71,-13.75 -35.79,-13.75 -10.54,0 -20.46,4.031 -29.84,12.031 -9.37,8.008 -14.06,16.488 -14.06,25.469 0,3.519 1.01,6.609 2.97,9.219 1.87,2.582 4.64,4.613 8.28,6.101 v 12.18 c 13.2,13.211 23.67,23.91 31.4,32.031 7.7,8.129 13.44,14.457 17.19,19.07 1.64,7.688 4.14,13.008 7.5,15.93 3.44,3.008 8.6,4.539 15.47,4.539 2.07,0 3.52,-0.43 4.38,-1.25 0.93,-0.75 1.4,-2 1.4,-3.75 0,-0.941 -0.12,-2.109 -0.31,-3.441 -0.24,-1.25 -0.31,-2.028 -0.31,-2.34 0,-1.367 0.97,-6.18 2.97,-14.379 2.07,-8.238 3.12,-15.738 3.12,-22.5 0,-13.051 -4.3,-25.551 -12.81,-37.5 -8.56,-11.879 -18.67,-19.531 -30.31,-22.969 2.18,-0.551 4.06,-0.941 5.62,-1.25 1.64,-0.23 3.05,-0.312 4.22,-0.312 6.95,0 15.94,3.48 26.87,10.472 10.94,7.071 23.75,17.539 38.44,31.399 z m -111.4,-15.309 c 0.31,0 0.78,0.039 1.4,0.16 0.7,0.079 1.25,0.149 1.56,0.149 4.26,0 8.29,-1.481 12.04,-4.371 3.82,-2.93 7.81,-7.77 11.87,-14.528 7.81,5.309 13.28,10.618 16.41,15.938 3.12,5.312 4.68,11.75 4.68,19.371 0,3.199 -0.31,6.871 -0.93,10.941 -0.63,4.059 -1.68,8.899 -3.13,14.528 -6.87,-7.309 -18.08,-18.199 -33.59,-32.66 -4.61,-4.18 -8.05,-7.34 -10.31,-9.528 z" /><path
         id="path82"
         style="fill:#000000;fill-opacity:1;fill-rule:nonzero;stroke:none"
         d="m 1459.1,340.16 v -1.57 c 0,-7.18 1.88,-12.93 5.63,-17.18 3.75,-4.18 8.79,-6.25 15.15,-6.25 8.21,0 18.21,3.469 30,10.461 11.76,6.957 24.14,16.801 37.19,29.539 v -14.07 c -16.8,-18.668 -31.72,-32.262 -44.84,-40.781 -13.13,-8.43 -25.63,-12.649 -37.5,-12.649 -11.68,0 -20.59,3.711 -26.72,11.09 -6.25,7.379 -9.38,18.012 -9.38,31.871 0,10.199 2.42,20.16 7.19,29.848 4.8,9.691 11.88,18.98 21.25,27.972 9.45,8.938 19.22,15.7 29.22,20.309 10.08,4.57 20.19,6.871 30.31,6.871 7.7,0 13.44,-1.172 17.19,-3.43 3.75,-2.312 5.62,-5.863 5.62,-10.632 0,-10.86 -7.77,-22.457 -23.28,-34.84 -15.54,-12.309 -34.53,-21.168 -57.03,-26.559 z m 1.25,13.75 c 16.95,7.692 30.24,15.149 39.85,22.34 9.68,7.27 14.53,13.359 14.53,18.281 0,1.25 -0.24,2.11 -0.63,2.66 -0.31,0.618 -0.86,0.93 -1.56,0.93 -6.68,0 -15.39,-4.211 -26.09,-12.652 -10.75,-8.438 -19.46,-18.989 -26.1,-31.559 z" /></g></g></svg>